<?xml version="1.0" encoding="utf-8" standalone="no"?>
<!DOCTYPE svg PUBLIC "-//W3C//DTD SVG 1.1//EN"
  "http://www.w3.org/Graphics/SVG/1.1/DTD/svg11.dtd">
<svg xmlns:xlink="http://www.w3.org/1999/xlink" width="504pt" height="378pt" viewBox="0 0 504 378" xmlns="http://www.w3.org/2000/svg" version="1.1">
 <metadata>
  <rdf:RDF xmlns:dc="http://purl.org/dc/elements/1.1/" xmlns:cc="http://creativecommons.org/ns#" xmlns:rdf="http://www.w3.org/1999/02/22-rdf-syntax-ns#">
   <cc:Work>
    <dc:type rdf:resource="http://purl.org/dc/dcmitype/StillImage"/>
    <dc:date>2022-01-08T16:49:33.202318</dc:date>
    <dc:format>image/svg+xml</dc:format>
    <dc:creator>
     <cc:Agent>
      <dc:title>Matplotlib v3.5.1, https://matplotlib.org/</dc:title>
     </cc:Agent>
    </dc:creator>
   </cc:Work>
  </rdf:RDF>
 </metadata>
 <defs>
  <style type="text/css">*{stroke-linejoin: round; stroke-linecap: butt}</style>
 </defs>
 <g id="figure_1">
  <g id="patch_1">
   <path d="M 0 378 
L 504 378 
L 504 0 
L 0 0 
L 0 378 
z
" style="fill: none"/>
  </g>
  <g id="axes_1">
   <g id="patch_2">
    <path d="M 72.885533 336.7 
L 449.341778 336.7 
L 449.341778 27.8 
L 72.885533 27.8 
L 72.885533 336.7 
z
" style="fill: none"/>
   </g>
   <g id="matplotlib.axis_1">
    <g id="xtick_1">
     <g id="line2d_1">
      <path d="M 151.411949 336.7 
L 151.411949 27.8 
" clip-path="url(#pc0d944c351)" style="fill: none; stroke-dasharray: 1.85,0.8; stroke-dashoffset: 0; stroke: #b2b2b2; stroke-width: 0.5"/>
     </g>
     <g id="line2d_2">
      <defs>
       <path id="m9c77c46295" d="M 0 0 
L 0 -3.5 
" style="stroke: #000000; stroke-width: 0.8"/>
      </defs>
      <g>
       <use xlink:href="#m9c77c46295" x="151.411949" y="336.7" style="stroke: #000000; stroke-width: 0.8"/>
      </g>
     </g>
     <g id="text_1">
      <!-- 0.1 -->
      <g transform="translate(143.460386 347.798437)scale(0.1 -0.1)">
       <defs>
        <path id="DejaVuSans-30" d="M 2034 4250 
Q 1547 4250 1301 3770 
Q 1056 3291 1056 2328 
Q 1056 1369 1301 889 
Q 1547 409 2034 409 
Q 2525 409 2770 889 
Q 3016 1369 3016 2328 
Q 3016 3291 2770 3770 
Q 2525 4250 2034 4250 
z
M 2034 4750 
Q 2819 4750 3233 4129 
Q 3647 3509 3647 2328 
Q 3647 1150 3233 529 
Q 2819 -91 2034 -91 
Q 1250 -91 836 529 
Q 422 1150 422 2328 
Q 422 3509 836 4129 
Q 1250 4750 2034 4750 
z
" transform="scale(0.015625)"/>
        <path id="DejaVuSans-2e" d="M 684 794 
L 1344 794 
L 1344 0 
L 684 0 
L 684 794 
z
" transform="scale(0.015625)"/>
        <path id="DejaVuSans-31" d="M 794 531 
L 1825 531 
L 1825 4091 
L 703 3866 
L 703 4441 
L 1819 4666 
L 2450 4666 
L 2450 531 
L 3481 531 
L 3481 0 
L 794 0 
L 794 531 
z
" transform="scale(0.015625)"/>
       </defs>
       <use xlink:href="#DejaVuSans-30"/>
       <use xlink:href="#DejaVuSans-2e" x="63.623047"/>
       <use xlink:href="#DejaVuSans-31" x="95.410156"/>
      </g>
     </g>
    </g>
    <g id="xtick_2">
     <g id="line2d_3">
      <path d="M 245.018009 336.7 
L 245.018009 27.8 
" clip-path="url(#pc0d944c351)" style="fill: none; stroke-dasharray: 1.85,0.8; stroke-dashoffset: 0; stroke: #b2b2b2; stroke-width: 0.5"/>
     </g>
     <g id="line2d_4">
      <g>
       <use xlink:href="#m9c77c46295" x="245.018009" y="336.7" style="stroke: #000000; stroke-width: 0.8"/>
      </g>
     </g>
     <g id="text_2">
      <!-- 1 -->
      <g transform="translate(241.836759 347.798437)scale(0.1 -0.1)">
       <use xlink:href="#DejaVuSans-31"/>
      </g>
     </g>
    </g>
    <g id="xtick_3">
     <g id="line2d_5">
      <path d="M 338.62407 336.7 
L 338.62407 27.8 
" clip-path="url(#pc0d944c351)" style="fill: none; stroke-dasharray: 1.85,0.8; stroke-dashoffset: 0; stroke: #b2b2b2; stroke-width: 0.5"/>
     </g>
     <g id="line2d_6">
      <g>
       <use xlink:href="#m9c77c46295" x="338.62407" y="336.7" style="stroke: #000000; stroke-width: 0.8"/>
      </g>
     </g>
     <g id="text_3">
      <!-- 10 -->
      <g transform="translate(332.26157 347.798437)scale(0.1 -0.1)">
       <use xlink:href="#DejaVuSans-31"/>
       <use xlink:href="#DejaVuSans-30" x="63.623047"/>
      </g>
     </g>
    </g>
    <g id="xtick_4">
     <g id="line2d_7">
      <path d="M 432.23013 336.7 
L 432.23013 27.8 
" clip-path="url(#pc0d944c351)" style="fill: none; stroke-dasharray: 1.85,0.8; stroke-dashoffset: 0; stroke: #b2b2b2; stroke-width: 0.5"/>
     </g>
     <g id="line2d_8">
      <g>
       <use xlink:href="#m9c77c46295" x="432.23013" y="336.7" style="stroke: #000000; stroke-width: 0.8"/>
      </g>
     </g>
     <g id="text_4">
      <!-- 100 -->
      <g transform="translate(422.68638 347.798437)scale(0.1 -0.1)">
       <use xlink:href="#DejaVuSans-31"/>
       <use xlink:href="#DejaVuSans-30" x="63.623047"/>
       <use xlink:href="#DejaVuSans-30" x="127.246094"/>
      </g>
     </g>
    </g>
    <g id="xtick_5">
     <g id="line2d_9">
      <defs>
       <path id="m48a23131a6" d="M 0 0 
L 0 -2 
" style="stroke: #000000; stroke-width: 0.6"/>
      </defs>
      <g>
       <use xlink:href="#m48a23131a6" x="85.98412" y="336.7" style="stroke: #000000; stroke-width: 0.6"/>
      </g>
     </g>
    </g>
    <g id="xtick_6">
     <g id="line2d_10">
      <g>
       <use xlink:href="#m48a23131a6" x="102.467329" y="336.7" style="stroke: #000000; stroke-width: 0.6"/>
      </g>
     </g>
    </g>
    <g id="xtick_7">
     <g id="line2d_11">
      <g>
       <use xlink:href="#m48a23131a6" x="114.162352" y="336.7" style="stroke: #000000; stroke-width: 0.6"/>
      </g>
     </g>
    </g>
    <g id="xtick_8">
     <g id="line2d_12">
      <g>
       <use xlink:href="#m48a23131a6" x="123.233717" y="336.7" style="stroke: #000000; stroke-width: 0.6"/>
      </g>
     </g>
    </g>
    <g id="xtick_9">
     <g id="line2d_13">
      <g>
       <use xlink:href="#m48a23131a6" x="130.645561" y="336.7" style="stroke: #000000; stroke-width: 0.6"/>
      </g>
     </g>
    </g>
    <g id="xtick_10">
     <g id="line2d_14">
      <g>
       <use xlink:href="#m48a23131a6" x="136.912186" y="336.7" style="stroke: #000000; stroke-width: 0.6"/>
      </g>
     </g>
    </g>
    <g id="xtick_11">
     <g id="line2d_15">
      <g>
       <use xlink:href="#m48a23131a6" x="142.340584" y="336.7" style="stroke: #000000; stroke-width: 0.6"/>
      </g>
     </g>
    </g>
    <g id="xtick_12">
     <g id="line2d_16">
      <g>
       <use xlink:href="#m48a23131a6" x="147.12877" y="336.7" style="stroke: #000000; stroke-width: 0.6"/>
      </g>
     </g>
    </g>
    <g id="xtick_13">
     <g id="line2d_17">
      <g>
       <use xlink:href="#m48a23131a6" x="179.590181" y="336.7" style="stroke: #000000; stroke-width: 0.6"/>
      </g>
     </g>
    </g>
    <g id="xtick_14">
     <g id="line2d_18">
      <g>
       <use xlink:href="#m48a23131a6" x="196.07339" y="336.7" style="stroke: #000000; stroke-width: 0.6"/>
      </g>
     </g>
    </g>
    <g id="xtick_15">
     <g id="line2d_19">
      <g>
       <use xlink:href="#m48a23131a6" x="207.768413" y="336.7" style="stroke: #000000; stroke-width: 0.6"/>
      </g>
     </g>
    </g>
    <g id="xtick_16">
     <g id="line2d_20">
      <g>
       <use xlink:href="#m48a23131a6" x="216.839777" y="336.7" style="stroke: #000000; stroke-width: 0.6"/>
      </g>
     </g>
    </g>
    <g id="xtick_17">
     <g id="line2d_21">
      <g>
       <use xlink:href="#m48a23131a6" x="224.251622" y="336.7" style="stroke: #000000; stroke-width: 0.6"/>
      </g>
     </g>
    </g>
    <g id="xtick_18">
     <g id="line2d_22">
      <g>
       <use xlink:href="#m48a23131a6" x="230.518247" y="336.7" style="stroke: #000000; stroke-width: 0.6"/>
      </g>
     </g>
    </g>
    <g id="xtick_19">
     <g id="line2d_23">
      <g>
       <use xlink:href="#m48a23131a6" x="235.946645" y="336.7" style="stroke: #000000; stroke-width: 0.6"/>
      </g>
     </g>
    </g>
    <g id="xtick_20">
     <g id="line2d_24">
      <g>
       <use xlink:href="#m48a23131a6" x="240.734831" y="336.7" style="stroke: #000000; stroke-width: 0.6"/>
      </g>
     </g>
    </g>
    <g id="xtick_21">
     <g id="line2d_25">
      <g>
       <use xlink:href="#m48a23131a6" x="273.196241" y="336.7" style="stroke: #000000; stroke-width: 0.6"/>
      </g>
     </g>
    </g>
    <g id="xtick_22">
     <g id="line2d_26">
      <g>
       <use xlink:href="#m48a23131a6" x="289.67945" y="336.7" style="stroke: #000000; stroke-width: 0.6"/>
      </g>
     </g>
    </g>
    <g id="xtick_23">
     <g id="line2d_27">
      <g>
       <use xlink:href="#m48a23131a6" x="301.374473" y="336.7" style="stroke: #000000; stroke-width: 0.6"/>
      </g>
     </g>
    </g>
    <g id="xtick_24">
     <g id="line2d_28">
      <g>
       <use xlink:href="#m48a23131a6" x="310.445838" y="336.7" style="stroke: #000000; stroke-width: 0.6"/>
      </g>
     </g>
    </g>
    <g id="xtick_25">
     <g id="line2d_29">
      <g>
       <use xlink:href="#m48a23131a6" x="317.857682" y="336.7" style="stroke: #000000; stroke-width: 0.6"/>
      </g>
     </g>
    </g>
    <g id="xtick_26">
     <g id="line2d_30">
      <g>
       <use xlink:href="#m48a23131a6" x="324.124308" y="336.7" style="stroke: #000000; stroke-width: 0.6"/>
      </g>
     </g>
    </g>
    <g id="xtick_27">
     <g id="line2d_31">
      <g>
       <use xlink:href="#m48a23131a6" x="329.552705" y="336.7" style="stroke: #000000; stroke-width: 0.6"/>
      </g>
     </g>
    </g>
    <g id="xtick_28">
     <g id="line2d_32">
      <g>
       <use xlink:href="#m48a23131a6" x="334.340891" y="336.7" style="stroke: #000000; stroke-width: 0.6"/>
      </g>
     </g>
    </g>
    <g id="xtick_29">
     <g id="line2d_33">
      <g>
       <use xlink:href="#m48a23131a6" x="366.802302" y="336.7" style="stroke: #000000; stroke-width: 0.6"/>
      </g>
     </g>
    </g>
    <g id="xtick_30">
     <g id="line2d_34">
      <g>
       <use xlink:href="#m48a23131a6" x="383.285511" y="336.7" style="stroke: #000000; stroke-width: 0.6"/>
      </g>
     </g>
    </g>
    <g id="xtick_31">
     <g id="line2d_35">
      <g>
       <use xlink:href="#m48a23131a6" x="394.980534" y="336.7" style="stroke: #000000; stroke-width: 0.6"/>
      </g>
     </g>
    </g>
    <g id="xtick_32">
     <g id="line2d_36">
      <g>
       <use xlink:href="#m48a23131a6" x="404.051898" y="336.7" style="stroke: #000000; stroke-width: 0.6"/>
      </g>
     </g>
    </g>
    <g id="xtick_33">
     <g id="line2d_37">
      <g>
       <use xlink:href="#m48a23131a6" x="411.463743" y="336.7" style="stroke: #000000; stroke-width: 0.6"/>
      </g>
     </g>
    </g>
    <g id="xtick_34">
     <g id="line2d_38">
      <g>
       <use xlink:href="#m48a23131a6" x="417.730368" y="336.7" style="stroke: #000000; stroke-width: 0.6"/>
      </g>
     </g>
    </g>
    <g id="xtick_35">
     <g id="line2d_39">
      <g>
       <use xlink:href="#m48a23131a6" x="423.158766" y="336.7" style="stroke: #000000; stroke-width: 0.6"/>
      </g>
     </g>
    </g>
    <g id="xtick_36">
     <g id="line2d_40">
      <g>
       <use xlink:href="#m48a23131a6" x="427.946952" y="336.7" style="stroke: #000000; stroke-width: 0.6"/>
      </g>
     </g>
    </g>
    <g id="text_5">
     <!-- False positive rate [%] -->
     <g transform="translate(194.22303 362.99625)scale(0.12 -0.12)">
      <defs>
       <path id="DejaVuSans-46" d="M 628 4666 
L 3309 4666 
L 3309 4134 
L 1259 4134 
L 1259 2759 
L 3109 2759 
L 3109 2228 
L 1259 2228 
L 1259 0 
L 628 0 
L 628 4666 
z
" transform="scale(0.015625)"/>
       <path id="DejaVuSans-61" d="M 2194 1759 
Q 1497 1759 1228 1600 
Q 959 1441 959 1056 
Q 959 750 1161 570 
Q 1363 391 1709 391 
Q 2188 391 2477 730 
Q 2766 1069 2766 1631 
L 2766 1759 
L 2194 1759 
z
M 3341 1997 
L 3341 0 
L 2766 0 
L 2766 531 
Q 2569 213 2275 61 
Q 1981 -91 1556 -91 
Q 1019 -91 701 211 
Q 384 513 384 1019 
Q 384 1609 779 1909 
Q 1175 2209 1959 2209 
L 2766 2209 
L 2766 2266 
Q 2766 2663 2505 2880 
Q 2244 3097 1772 3097 
Q 1472 3097 1187 3025 
Q 903 2953 641 2809 
L 641 3341 
Q 956 3463 1253 3523 
Q 1550 3584 1831 3584 
Q 2591 3584 2966 3190 
Q 3341 2797 3341 1997 
z
" transform="scale(0.015625)"/>
       <path id="DejaVuSans-6c" d="M 603 4863 
L 1178 4863 
L 1178 0 
L 603 0 
L 603 4863 
z
" transform="scale(0.015625)"/>
       <path id="DejaVuSans-73" d="M 2834 3397 
L 2834 2853 
Q 2591 2978 2328 3040 
Q 2066 3103 1784 3103 
Q 1356 3103 1142 2972 
Q 928 2841 928 2578 
Q 928 2378 1081 2264 
Q 1234 2150 1697 2047 
L 1894 2003 
Q 2506 1872 2764 1633 
Q 3022 1394 3022 966 
Q 3022 478 2636 193 
Q 2250 -91 1575 -91 
Q 1294 -91 989 -36 
Q 684 19 347 128 
L 347 722 
Q 666 556 975 473 
Q 1284 391 1588 391 
Q 1994 391 2212 530 
Q 2431 669 2431 922 
Q 2431 1156 2273 1281 
Q 2116 1406 1581 1522 
L 1381 1569 
Q 847 1681 609 1914 
Q 372 2147 372 2553 
Q 372 3047 722 3315 
Q 1072 3584 1716 3584 
Q 2034 3584 2315 3537 
Q 2597 3491 2834 3397 
z
" transform="scale(0.015625)"/>
       <path id="DejaVuSans-65" d="M 3597 1894 
L 3597 1613 
L 953 1613 
Q 991 1019 1311 708 
Q 1631 397 2203 397 
Q 2534 397 2845 478 
Q 3156 559 3463 722 
L 3463 178 
Q 3153 47 2828 -22 
Q 2503 -91 2169 -91 
Q 1331 -91 842 396 
Q 353 884 353 1716 
Q 353 2575 817 3079 
Q 1281 3584 2069 3584 
Q 2775 3584 3186 3129 
Q 3597 2675 3597 1894 
z
M 3022 2063 
Q 3016 2534 2758 2815 
Q 2500 3097 2075 3097 
Q 1594 3097 1305 2825 
Q 1016 2553 972 2059 
L 3022 2063 
z
" transform="scale(0.015625)"/>
       <path id="DejaVuSans-20" transform="scale(0.015625)"/>
       <path id="DejaVuSans-70" d="M 1159 525 
L 1159 -1331 
L 581 -1331 
L 581 3500 
L 1159 3500 
L 1159 2969 
Q 1341 3281 1617 3432 
Q 1894 3584 2278 3584 
Q 2916 3584 3314 3078 
Q 3713 2572 3713 1747 
Q 3713 922 3314 415 
Q 2916 -91 2278 -91 
Q 1894 -91 1617 61 
Q 1341 213 1159 525 
z
M 3116 1747 
Q 3116 2381 2855 2742 
Q 2594 3103 2138 3103 
Q 1681 3103 1420 2742 
Q 1159 2381 1159 1747 
Q 1159 1113 1420 752 
Q 1681 391 2138 391 
Q 2594 391 2855 752 
Q 3116 1113 3116 1747 
z
" transform="scale(0.015625)"/>
       <path id="DejaVuSans-6f" d="M 1959 3097 
Q 1497 3097 1228 2736 
Q 959 2375 959 1747 
Q 959 1119 1226 758 
Q 1494 397 1959 397 
Q 2419 397 2687 759 
Q 2956 1122 2956 1747 
Q 2956 2369 2687 2733 
Q 2419 3097 1959 3097 
z
M 1959 3584 
Q 2709 3584 3137 3096 
Q 3566 2609 3566 1747 
Q 3566 888 3137 398 
Q 2709 -91 1959 -91 
Q 1206 -91 779 398 
Q 353 888 353 1747 
Q 353 2609 779 3096 
Q 1206 3584 1959 3584 
z
" transform="scale(0.015625)"/>
       <path id="DejaVuSans-69" d="M 603 3500 
L 1178 3500 
L 1178 0 
L 603 0 
L 603 3500 
z
M 603 4863 
L 1178 4863 
L 1178 4134 
L 603 4134 
L 603 4863 
z
" transform="scale(0.015625)"/>
       <path id="DejaVuSans-74" d="M 1172 4494 
L 1172 3500 
L 2356 3500 
L 2356 3053 
L 1172 3053 
L 1172 1153 
Q 1172 725 1289 603 
Q 1406 481 1766 481 
L 2356 481 
L 2356 0 
L 1766 0 
Q 1100 0 847 248 
Q 594 497 594 1153 
L 594 3053 
L 172 3053 
L 172 3500 
L 594 3500 
L 594 4494 
L 1172 4494 
z
" transform="scale(0.015625)"/>
       <path id="DejaVuSans-76" d="M 191 3500 
L 800 3500 
L 1894 563 
L 2988 3500 
L 3597 3500 
L 2284 0 
L 1503 0 
L 191 3500 
z
" transform="scale(0.015625)"/>
       <path id="DejaVuSans-72" d="M 2631 2963 
Q 2534 3019 2420 3045 
Q 2306 3072 2169 3072 
Q 1681 3072 1420 2755 
Q 1159 2438 1159 1844 
L 1159 0 
L 581 0 
L 581 3500 
L 1159 3500 
L 1159 2956 
Q 1341 3275 1631 3429 
Q 1922 3584 2338 3584 
Q 2397 3584 2469 3576 
Q 2541 3569 2628 3553 
L 2631 2963 
z
" transform="scale(0.015625)"/>
       <path id="DejaVuSans-5b" d="M 550 4863 
L 1875 4863 
L 1875 4416 
L 1125 4416 
L 1125 -397 
L 1875 -397 
L 1875 -844 
L 550 -844 
L 550 4863 
z
" transform="scale(0.015625)"/>
       <path id="DejaVuSans-25" d="M 4653 2053 
Q 4381 2053 4226 1822 
Q 4072 1591 4072 1178 
Q 4072 772 4226 539 
Q 4381 306 4653 306 
Q 4919 306 5073 539 
Q 5228 772 5228 1178 
Q 5228 1588 5073 1820 
Q 4919 2053 4653 2053 
z
M 4653 2450 
Q 5147 2450 5437 2106 
Q 5728 1763 5728 1178 
Q 5728 594 5436 251 
Q 5144 -91 4653 -91 
Q 4153 -91 3862 251 
Q 3572 594 3572 1178 
Q 3572 1766 3864 2108 
Q 4156 2450 4653 2450 
z
M 1428 4353 
Q 1159 4353 1004 4120 
Q 850 3888 850 3481 
Q 850 3069 1003 2837 
Q 1156 2606 1428 2606 
Q 1700 2606 1854 2837 
Q 2009 3069 2009 3481 
Q 2009 3884 1853 4118 
Q 1697 4353 1428 4353 
z
M 4250 4750 
L 4750 4750 
L 1831 -91 
L 1331 -91 
L 4250 4750 
z
M 1428 4750 
Q 1922 4750 2215 4408 
Q 2509 4066 2509 3481 
Q 2509 2891 2217 2550 
Q 1925 2209 1428 2209 
Q 931 2209 642 2551 
Q 353 2894 353 3481 
Q 353 4063 643 4406 
Q 934 4750 1428 4750 
z
" transform="scale(0.015625)"/>
       <path id="DejaVuSans-5d" d="M 1947 4863 
L 1947 -844 
L 622 -844 
L 622 -397 
L 1369 -397 
L 1369 4416 
L 622 4416 
L 622 4863 
L 1947 4863 
z
" transform="scale(0.015625)"/>
      </defs>
      <use xlink:href="#DejaVuSans-46"/>
      <use xlink:href="#DejaVuSans-61" x="48.394531"/>
      <use xlink:href="#DejaVuSans-6c" x="109.673828"/>
      <use xlink:href="#DejaVuSans-73" x="137.457031"/>
      <use xlink:href="#DejaVuSans-65" x="189.556641"/>
      <use xlink:href="#DejaVuSans-20" x="251.080078"/>
      <use xlink:href="#DejaVuSans-70" x="282.867188"/>
      <use xlink:href="#DejaVuSans-6f" x="346.34375"/>
      <use xlink:href="#DejaVuSans-73" x="407.525391"/>
      <use xlink:href="#DejaVuSans-69" x="459.625"/>
      <use xlink:href="#DejaVuSans-74" x="487.408203"/>
      <use xlink:href="#DejaVuSans-69" x="526.617188"/>
      <use xlink:href="#DejaVuSans-76" x="554.400391"/>
      <use xlink:href="#DejaVuSans-65" x="613.580078"/>
      <use xlink:href="#DejaVuSans-20" x="675.103516"/>
      <use xlink:href="#DejaVuSans-72" x="706.890625"/>
      <use xlink:href="#DejaVuSans-61" x="748.003906"/>
      <use xlink:href="#DejaVuSans-74" x="809.283203"/>
      <use xlink:href="#DejaVuSans-65" x="848.492188"/>
      <use xlink:href="#DejaVuSans-20" x="910.015625"/>
      <use xlink:href="#DejaVuSans-5b" x="941.802734"/>
      <use xlink:href="#DejaVuSans-25" x="980.816406"/>
      <use xlink:href="#DejaVuSans-5d" x="1075.835938"/>
     </g>
    </g>
   </g>
   <g id="matplotlib.axis_2">
    <g id="ytick_1">
     <g id="line2d_41">
      <path d="M 72.885533 322.659091 
L 449.341778 322.659091 
" clip-path="url(#pc0d944c351)" style="fill: none; stroke-dasharray: 1.85,0.8; stroke-dashoffset: 0; stroke: #b2b2b2; stroke-width: 0.5"/>
     </g>
     <g id="line2d_42">
      <defs>
       <path id="maa1af8c0ed" d="M 0 0 
L 3.5 0 
" style="stroke: #000000; stroke-width: 0.8"/>
      </defs>
      <g>
       <use xlink:href="#maa1af8c0ed" x="72.885533" y="322.659091" style="stroke: #000000; stroke-width: 0.8"/>
      </g>
     </g>
     <g id="text_6">
      <!-- 0 -->
      <g transform="translate(63.023033 326.45831)scale(0.1 -0.1)">
       <use xlink:href="#DejaVuSans-30"/>
      </g>
     </g>
    </g>
    <g id="ytick_2">
     <g id="line2d_43">
      <path d="M 72.885533 266.495455 
L 449.341778 266.495455 
" clip-path="url(#pc0d944c351)" style="fill: none; stroke-dasharray: 1.85,0.8; stroke-dashoffset: 0; stroke: #b2b2b2; stroke-width: 0.5"/>
     </g>
     <g id="line2d_44">
      <g>
       <use xlink:href="#maa1af8c0ed" x="72.885533" y="266.495455" style="stroke: #000000; stroke-width: 0.8"/>
      </g>
     </g>
     <g id="text_7">
      <!-- 20 -->
      <g transform="translate(56.660533 270.294673)scale(0.1 -0.1)">
       <defs>
        <path id="DejaVuSans-32" d="M 1228 531 
L 3431 531 
L 3431 0 
L 469 0 
L 469 531 
Q 828 903 1448 1529 
Q 2069 2156 2228 2338 
Q 2531 2678 2651 2914 
Q 2772 3150 2772 3378 
Q 2772 3750 2511 3984 
Q 2250 4219 1831 4219 
Q 1534 4219 1204 4116 
Q 875 4013 500 3803 
L 500 4441 
Q 881 4594 1212 4672 
Q 1544 4750 1819 4750 
Q 2544 4750 2975 4387 
Q 3406 4025 3406 3419 
Q 3406 3131 3298 2873 
Q 3191 2616 2906 2266 
Q 2828 2175 2409 1742 
Q 1991 1309 1228 531 
z
" transform="scale(0.015625)"/>
       </defs>
       <use xlink:href="#DejaVuSans-32"/>
       <use xlink:href="#DejaVuSans-30" x="63.623047"/>
      </g>
     </g>
    </g>
    <g id="ytick_3">
     <g id="line2d_45">
      <path d="M 72.885533 210.331818 
L 449.341778 210.331818 
" clip-path="url(#pc0d944c351)" style="fill: none; stroke-dasharray: 1.85,0.8; stroke-dashoffset: 0; stroke: #b2b2b2; stroke-width: 0.5"/>
     </g>
     <g id="line2d_46">
      <g>
       <use xlink:href="#maa1af8c0ed" x="72.885533" y="210.331818" style="stroke: #000000; stroke-width: 0.8"/>
      </g>
     </g>
     <g id="text_8">
      <!-- 40 -->
      <g transform="translate(56.660533 214.131037)scale(0.1 -0.1)">
       <defs>
        <path id="DejaVuSans-34" d="M 2419 4116 
L 825 1625 
L 2419 1625 
L 2419 4116 
z
M 2253 4666 
L 3047 4666 
L 3047 1625 
L 3713 1625 
L 3713 1100 
L 3047 1100 
L 3047 0 
L 2419 0 
L 2419 1100 
L 313 1100 
L 313 1709 
L 2253 4666 
z
" transform="scale(0.015625)"/>
       </defs>
       <use xlink:href="#DejaVuSans-34"/>
       <use xlink:href="#DejaVuSans-30" x="63.623047"/>
      </g>
     </g>
    </g>
    <g id="ytick_4">
     <g id="line2d_47">
      <path d="M 72.885533 154.168182 
L 449.341778 154.168182 
" clip-path="url(#pc0d944c351)" style="fill: none; stroke-dasharray: 1.85,0.8; stroke-dashoffset: 0; stroke: #b2b2b2; stroke-width: 0.5"/>
     </g>
     <g id="line2d_48">
      <g>
       <use xlink:href="#maa1af8c0ed" x="72.885533" y="154.168182" style="stroke: #000000; stroke-width: 0.8"/>
      </g>
     </g>
     <g id="text_9">
      <!-- 60 -->
      <g transform="translate(56.660533 157.967401)scale(0.1 -0.1)">
       <defs>
        <path id="DejaVuSans-36" d="M 2113 2584 
Q 1688 2584 1439 2293 
Q 1191 2003 1191 1497 
Q 1191 994 1439 701 
Q 1688 409 2113 409 
Q 2538 409 2786 701 
Q 3034 994 3034 1497 
Q 3034 2003 2786 2293 
Q 2538 2584 2113 2584 
z
M 3366 4563 
L 3366 3988 
Q 3128 4100 2886 4159 
Q 2644 4219 2406 4219 
Q 1781 4219 1451 3797 
Q 1122 3375 1075 2522 
Q 1259 2794 1537 2939 
Q 1816 3084 2150 3084 
Q 2853 3084 3261 2657 
Q 3669 2231 3669 1497 
Q 3669 778 3244 343 
Q 2819 -91 2113 -91 
Q 1303 -91 875 529 
Q 447 1150 447 2328 
Q 447 3434 972 4092 
Q 1497 4750 2381 4750 
Q 2619 4750 2861 4703 
Q 3103 4656 3366 4563 
z
" transform="scale(0.015625)"/>
       </defs>
       <use xlink:href="#DejaVuSans-36"/>
       <use xlink:href="#DejaVuSans-30" x="63.623047"/>
      </g>
     </g>
    </g>
    <g id="ytick_5">
     <g id="line2d_49">
      <path d="M 72.885533 98.004545 
L 449.341778 98.004545 
" clip-path="url(#pc0d944c351)" style="fill: none; stroke-dasharray: 1.85,0.8; stroke-dashoffset: 0; stroke: #b2b2b2; stroke-width: 0.5"/>
     </g>
     <g id="line2d_50">
      <g>
       <use xlink:href="#maa1af8c0ed" x="72.885533" y="98.004545" style="stroke: #000000; stroke-width: 0.8"/>
      </g>
     </g>
     <g id="text_10">
      <!-- 80 -->
      <g transform="translate(56.660533 101.803764)scale(0.1 -0.1)">
       <defs>
        <path id="DejaVuSans-38" d="M 2034 2216 
Q 1584 2216 1326 1975 
Q 1069 1734 1069 1313 
Q 1069 891 1326 650 
Q 1584 409 2034 409 
Q 2484 409 2743 651 
Q 3003 894 3003 1313 
Q 3003 1734 2745 1975 
Q 2488 2216 2034 2216 
z
M 1403 2484 
Q 997 2584 770 2862 
Q 544 3141 544 3541 
Q 544 4100 942 4425 
Q 1341 4750 2034 4750 
Q 2731 4750 3128 4425 
Q 3525 4100 3525 3541 
Q 3525 3141 3298 2862 
Q 3072 2584 2669 2484 
Q 3125 2378 3379 2068 
Q 3634 1759 3634 1313 
Q 3634 634 3220 271 
Q 2806 -91 2034 -91 
Q 1263 -91 848 271 
Q 434 634 434 1313 
Q 434 1759 690 2068 
Q 947 2378 1403 2484 
z
M 1172 3481 
Q 1172 3119 1398 2916 
Q 1625 2713 2034 2713 
Q 2441 2713 2670 2916 
Q 2900 3119 2900 3481 
Q 2900 3844 2670 4047 
Q 2441 4250 2034 4250 
Q 1625 4250 1398 4047 
Q 1172 3844 1172 3481 
z
" transform="scale(0.015625)"/>
       </defs>
       <use xlink:href="#DejaVuSans-38"/>
       <use xlink:href="#DejaVuSans-30" x="63.623047"/>
      </g>
     </g>
    </g>
    <g id="ytick_6">
     <g id="line2d_51">
      <path d="M 72.885533 41.840909 
L 449.341778 41.840909 
" clip-path="url(#pc0d944c351)" style="fill: none; stroke-dasharray: 1.85,0.8; stroke-dashoffset: 0; stroke: #b2b2b2; stroke-width: 0.5"/>
     </g>
     <g id="line2d_52">
      <g>
       <use xlink:href="#maa1af8c0ed" x="72.885533" y="41.840909" style="stroke: #000000; stroke-width: 0.8"/>
      </g>
     </g>
     <g id="text_11">
      <!-- 100 -->
      <g transform="translate(50.298033 45.640128)scale(0.1 -0.1)">
       <use xlink:href="#DejaVuSans-31"/>
       <use xlink:href="#DejaVuSans-30" x="63.623047"/>
       <use xlink:href="#DejaVuSans-30" x="127.246094"/>
      </g>
     </g>
    </g>
    <g id="text_12">
     <!-- True positive rate [%] -->
     <g transform="translate(43.802408 246.816562)rotate(-90)scale(0.12 -0.12)">
      <defs>
       <path id="DejaVuSans-54" d="M -19 4666 
L 3928 4666 
L 3928 4134 
L 2272 4134 
L 2272 0 
L 1638 0 
L 1638 4134 
L -19 4134 
L -19 4666 
z
" transform="scale(0.015625)"/>
       <path id="DejaVuSans-75" d="M 544 1381 
L 544 3500 
L 1119 3500 
L 1119 1403 
Q 1119 906 1312 657 
Q 1506 409 1894 409 
Q 2359 409 2629 706 
Q 2900 1003 2900 1516 
L 2900 3500 
L 3475 3500 
L 3475 0 
L 2900 0 
L 2900 538 
Q 2691 219 2414 64 
Q 2138 -91 1772 -91 
Q 1169 -91 856 284 
Q 544 659 544 1381 
z
M 1991 3584 
L 1991 3584 
z
" transform="scale(0.015625)"/>
      </defs>
      <use xlink:href="#DejaVuSans-54"/>
      <use xlink:href="#DejaVuSans-72" x="46.333984"/>
      <use xlink:href="#DejaVuSans-75" x="87.447266"/>
      <use xlink:href="#DejaVuSans-65" x="150.826172"/>
      <use xlink:href="#DejaVuSans-20" x="212.349609"/>
      <use xlink:href="#DejaVuSans-70" x="244.136719"/>
      <use xlink:href="#DejaVuSans-6f" x="307.613281"/>
      <use xlink:href="#DejaVuSans-73" x="368.794922"/>
      <use xlink:href="#DejaVuSans-69" x="420.894531"/>
      <use xlink:href="#DejaVuSans-74" x="448.677734"/>
      <use xlink:href="#DejaVuSans-69" x="487.886719"/>
      <use xlink:href="#DejaVuSans-76" x="515.669922"/>
      <use xlink:href="#DejaVuSans-65" x="574.849609"/>
      <use xlink:href="#DejaVuSans-20" x="636.373047"/>
      <use xlink:href="#DejaVuSans-72" x="668.160156"/>
      <use xlink:href="#DejaVuSans-61" x="709.273438"/>
      <use xlink:href="#DejaVuSans-74" x="770.552734"/>
      <use xlink:href="#DejaVuSans-65" x="809.761719"/>
      <use xlink:href="#DejaVuSans-20" x="871.285156"/>
      <use xlink:href="#DejaVuSans-5b" x="903.072266"/>
      <use xlink:href="#DejaVuSans-25" x="942.085938"/>
      <use xlink:href="#DejaVuSans-5d" x="1037.105469"/>
     </g>
    </g>
   </g>
   <g id="line2d_53">
    <path d="M -1 138.863829 
L 89.997181 138.863829 
L 89.997181 136.003203 
L 89.997181 136.003203 
L 118.175413 136.003203 
L 118.175413 126.467781 
L 118.175413 126.467781 
L 134.658622 126.467781 
L 134.658622 125.752624 
L 134.658622 125.752624 
L 146.353645 125.752624 
L 146.353645 121.223298 
L 146.353645 121.223298 
L 155.425009 121.223298 
L 155.425009 119.077828 
L 155.425009 119.077828 
L 162.836854 119.077828 
L 162.836854 118.362672 
L 162.836854 118.362672 
L 169.103479 118.362672 
L 169.103479 116.455587 
L 169.103479 116.455587 
L 174.531877 116.455587 
L 174.531877 115.26366 
L 174.531877 115.26366 
L 179.320063 115.26366 
L 179.320063 108.588864 
L 179.320063 108.588864 
L 183.603241 108.588864 
L 183.603241 105.013081 
L 183.603241 105.013081 
L 187.477847 105.013081 
L 187.477847 102.867611 
L 187.477847 102.867611 
L 191.015086 102.867611 
L 191.015086 102.629225 
L 191.015086 102.629225 
L 194.269029 102.629225 
L 194.269029 101.437297 
L 194.269029 101.437297 
L 197.281711 101.437297 
L 197.281711 100.24537 
L 197.281711 100.24537 
L 202.710109 100.24537 
L 202.710109 98.815056 
L 202.710109 98.815056 
L 207.498295 98.815056 
L 207.498295 98.576671 
L 207.498295 98.576671 
L 209.696268 98.576671 
L 209.696268 96.431201 
L 209.696268 96.431201 
L 211.781473 96.431201 
L 211.781473 95.239273 
L 211.781473 95.239273 
L 213.76492 95.239273 
L 213.76492 93.80896 
L 213.76492 93.80896 
L 215.656079 93.80896 
L 215.656079 92.140261 
L 215.656079 92.140261 
L 217.463159 92.140261 
L 217.463159 87.134164 
L 217.463159 87.134164 
L 219.193318 87.134164 
L 219.193318 86.180622 
L 219.193318 86.180622 
L 220.852838 86.180622 
L 220.852838 85.942236 
L 220.852838 85.942236 
L 223.981504 85.942236 
L 223.981504 84.750309 
L 223.981504 84.750309 
L 225.459943 84.750309 
L 225.459943 83.796766 
L 225.459943 83.796766 
L 226.886496 83.796766 
L 226.886496 82.843224 
L 226.886496 82.843224 
L 228.264682 82.843224 
L 228.264682 79.505827 
L 228.264682 79.505827 
L 229.597674 79.505827 
L 229.597674 78.79067 
L 229.597674 78.79067 
L 233.352889 78.79067 
L 233.352889 78.313899 
L 233.352889 78.313899 
L 234.531307 78.313899 
L 234.531307 76.883585 
L 234.531307 76.883585 
L 235.676527 76.883585 
L 235.676527 76.168429 
L 235.676527 76.168429 
L 236.790366 76.168429 
L 236.790366 75.691658 
L 236.790366 75.691658 
L 237.8745 75.691658 
L 237.8745 75.214887 
L 237.8745 75.214887 
L 239.959705 75.214887 
L 239.959705 74.49973 
L 239.959705 74.49973 
L 241.943152 74.49973 
L 241.943152 73.069417 
L 241.943152 73.069417 
L 244.747891 73.069417 
L 244.747891 72.115874 
L 244.747891 72.115874 
L 245.641391 72.115874 
L 245.641391 71.400718 
L 245.641391 71.400718 
L 246.515674 71.400718 
L 246.515674 70.685561 
L 246.515674 70.685561 
L 247.37155 70.685561 
L 247.37155 70.20879 
L 247.37155 70.20879 
L 249.836098 70.20879 
L 249.836098 69.970404 
L 249.836098 69.970404 
L 250.625494 69.970404 
L 250.625494 69.732019 
L 250.625494 69.732019 
L 252.159736 69.732019 
L 252.159736 69.493633 
L 252.159736 69.493633 
L 252.905676 69.493633 
L 252.905676 69.255248 
L 252.905676 69.255248 
L 255.064728 69.255248 
L 255.064728 69.016862 
L 255.064728 69.016862 
L 255.759661 69.016862 
L 255.759661 66.871392 
L 255.759661 66.871392 
L 259.066573 66.871392 
L 259.066573 66.394621 
L 259.066573 66.394621 
L 259.696858 66.394621 
L 259.696858 65.91785 
L 259.696858 65.91785 
L 260.31752 65.91785 
L 260.31752 65.202693 
L 260.31752 65.202693 
L 260.928849 65.202693 
L 260.928849 64.964308 
L 260.928849 64.964308 
L 261.531121 64.964308 
L 261.531121 64.249151 
L 261.531121 64.249151 
L 263.286182 64.249151 
L 263.286182 64.010766 
L 263.286182 64.010766 
L 263.854759 64.010766 
L 263.854759 63.77238 
L 263.854759 63.77238 
L 266.584146 63.77238 
L 266.584146 63.533994 
L 266.584146 63.533994 
L 268.642945 63.533994 
L 268.642945 62.818838 
L 268.642945 62.818838 
L 269.141756 62.818838 
L 269.141756 62.103681 
L 269.141756 62.103681 
L 270.121384 62.103681 
L 270.121384 61.865296 
L 270.121384 61.865296 
L 271.547937 61.865296 
L 271.547937 61.388524 
L 271.547937 61.388524 
L 272.012543 61.388524 
L 272.012543 61.150139 
L 272.012543 61.150139 
L 272.926123 61.150139 
L 272.926123 60.911753 
L 272.926123 60.911753 
L 273.375328 60.911753 
L 273.375328 60.673368 
L 273.375328 60.673368 
L 273.819623 60.673368 
L 273.819623 60.434982 
L 273.819623 60.434982 
L 274.259115 60.434982 
L 274.259115 59.958211 
L 274.259115 59.958211 
L 274.693906 59.958211 
L 274.693906 59.719826 
L 274.693906 59.719826 
L 275.124096 59.719826 
L 275.124096 59.48144 
L 275.124096 59.48144 
L 276.388009 59.48144 
L 276.388009 59.243054 
L 276.388009 59.243054 
L 278.410944 59.243054 
L 278.410944 59.004669 
L 278.410944 59.004669 
L 278.803726 59.004669 
L 278.803726 58.766283 
L 278.803726 58.766283 
L 279.192749 58.766283 
L 279.192749 58.051127 
L 279.192749 58.051127 
L 279.578084 58.051127 
L 279.578084 57.812741 
L 279.578084 57.812741 
L 281.083908 57.812741 
L 281.083908 57.574356 
L 281.083908 57.574356 
L 282.535941 57.574356 
L 282.535941 57.33597 
L 282.535941 57.33597 
L 284.958514 57.33597 
L 284.958514 57.097585 
L 284.958514 57.097585 
L 286.925959 57.097585 
L 286.925959 56.620813 
L 286.925959 56.620813 
L 288.802566 56.620813 
L 288.802566 56.382428 
L 288.802566 56.382428 
L 289.709353 56.382428 
L 289.709353 56.144042 
L 289.709353 56.144042 
L 290.007175 56.144042 
L 290.007175 55.905657 
L 290.007175 55.905657 
L 290.887772 55.905657 
L 290.887772 55.667271 
L 290.887772 55.667271 
L 291.749696 55.667271 
L 291.749696 55.428886 
L 291.749696 55.428886 
L 296.569457 55.428886 
L 296.569457 54.952115 
L 296.569457 54.952115 
L 298.540878 54.952115 
L 298.540878 54.713729 
L 298.540878 54.713729 
L 299.256192 54.713729 
L 299.256192 54.475343 
L 299.256192 54.475343 
L 301.329578 54.475343 
L 301.329578 54.236958 
L 301.329578 54.236958 
L 301.55356 54.236958 
L 301.55356 53.760187 
L 301.55356 53.760187 
L 302.437347 53.760187 
L 302.437347 53.283416 
L 302.437347 53.283416 
L 303.087802 53.283416 
L 303.087802 53.04503 
L 303.087802 53.04503 
L 304.566241 53.04503 
L 304.566241 52.806645 
L 304.566241 52.806645 
L 306.391353 52.806645 
L 306.391353 52.568259 
L 306.391353 52.568259 
L 308.703972 52.568259 
L 308.703972 52.329873 
L 308.703972 52.329873 
L 310.17572 52.329873 
L 310.17572 52.091488 
L 310.17572 52.091488 
L 312.116125 52.091488 
L 312.116125 51.853102 
L 312.116125 51.853102 
L 315.739401 51.853102 
L 315.739401 51.614717 
L 315.739401 51.614717 
L 317.133341 51.614717 
L 317.133341 51.376331 
L 317.133341 51.376331 
L 319.642646 51.376331 
L 319.642646 51.137946 
L 319.642646 51.137946 
L 319.927928 51.137946 
L 319.927928 50.89956 
L 319.927928 50.89956 
L 320.069822 50.89956 
L 320.069822 50.661175 
L 320.069822 50.661175 
L 322.140861 50.661175 
L 322.140861 50.422789 
L 322.140861 50.422789 
L 323.983041 50.422789 
L 323.983041 50.184403 
L 323.983041 50.184403 
L 327.316076 50.184403 
L 327.316076 49.946018 
L 327.316076 49.946018 
L 327.434424 49.946018 
L 327.434424 49.469247 
L 327.434424 49.469247 
L 327.552429 49.469247 
L 327.552429 49.230861 
L 327.552429 49.230861 
L 331.906246 49.230861 
L 331.906246 48.992476 
L 331.906246 48.992476 
L 336.221172 48.992476 
L 336.221172 48.75409 
L 336.221172 48.75409 
L 342.880317 48.75409 
L 342.880317 48.515705 
L 342.880317 48.515705 
L 346.511737 48.515705 
L 346.511737 48.277319 
L 346.511737 48.277319 
L 347.171577 48.277319 
L 347.171577 48.038933 
L 347.171577 48.038933 
L 347.749243 48.038933 
L 347.749243 47.800548 
L 347.749243 47.800548 
L 350.720934 47.800548 
L 350.720934 47.562162 
L 350.720934 47.562162 
L 351.052794 47.562162 
L 351.052794 47.323777 
L 351.052794 47.323777 
L 351.708495 47.323777 
L 351.708495 47.085391 
L 351.708495 47.085391 
L 355.671701 47.085391 
L 355.671701 46.847006 
L 355.671701 46.847006 
L 358.409516 46.847006 
L 358.409516 46.60862 
L 358.409516 46.60862 
L 362.449265 46.60862 
L 362.449265 46.370235 
L 362.449265 46.370235 
L 369.240447 46.370235 
L 369.240447 46.131849 
L 369.240447 46.131849 
L 372.135238 46.131849 
L 372.135238 45.893463 
L 372.135238 45.893463 
L 376.77887 45.893463 
L 376.77887 45.655078 
L 376.77887 45.655078 
L 378.497325 45.655078 
L 378.497325 45.416692 
L 378.497325 45.416692 
L 382.224816 45.416692 
L 382.224816 45.178307 
L 382.224816 45.178307 
L 384.173157 45.178307 
L 384.173157 44.939921 
L 384.173157 44.939921 
L 385.15627 44.939921 
L 385.15627 44.701536 
L 385.15627 44.701536 
L 385.55427 44.701536 
L 385.55427 44.46315 
L 385.55427 44.46315 
L 399.398101 44.46315 
L 399.398101 44.224765 
L 399.398101 44.224765 
L 399.838459 44.224765 
L 399.838459 43.986379 
L 399.838459 43.986379 
L 402.459628 43.986379 
L 402.459628 43.747994 
L 402.459628 43.747994 
L 406.927173 43.747994 
L 406.927173 43.509608 
L 406.927173 43.509608 
L 407.999863 43.509608 
L 407.999863 43.271222 
L 407.999863 43.271222 
L 408.997325 43.271222 
L 408.997325 43.032837 
L 408.997325 43.032837 
L 409.329702 43.032837 
L 409.329702 42.794451 
L 409.329702 42.794451 
L 412.116572 42.794451 
L 412.116572 42.556066 
L 412.116572 42.556066 
L 414.154651 42.556066 
L 414.154651 42.31768 
L 414.154651 42.31768 
L 422.854757 42.31768 
L 422.854757 42.079295 
L 422.854757 42.079295 
L 425.310661 42.079295 
L 425.310661 41.840909 
L 425.310661 41.840909 
L 432.23013 41.840909 
L 432.23013 41.840909 
" clip-path="url(#pc0d944c351)" style="fill: none; stroke: #348abd; stroke-width: 2; stroke-linecap: square"/>
   </g>
   <g id="line2d_54">
    <path d="M -1 136.241588 
L 89.997181 136.241588 
L 89.997181 130.281949 
L 89.997181 130.281949 
L 118.175413 130.281949 
L 118.175413 124.322311 
L 118.175413 124.322311 
L 134.658622 124.322311 
L 134.658622 115.740431 
L 134.658622 115.740431 
L 146.353645 115.740431 
L 146.353645 111.211105 
L 146.353645 111.211105 
L 155.425009 111.211105 
L 155.425009 102.867611 
L 155.425009 102.867611 
L 162.836854 102.867611 
L 162.836854 102.39084 
L 162.836854 102.39084 
L 169.103479 102.39084 
L 169.103479 100.722141 
L 169.103479 100.722141 
L 174.531877 100.722141 
L 174.531877 94.285731 
L 174.531877 94.285731 
L 179.320063 94.285731 
L 179.320063 93.570574 
L 179.320063 93.570574 
L 183.603241 93.570574 
L 183.603241 92.855418 
L 183.603241 92.855418 
L 187.477847 92.855418 
L 187.477847 91.901875 
L 187.477847 91.901875 
L 191.015086 91.901875 
L 191.015086 89.51802 
L 191.015086 89.51802 
L 194.269029 89.51802 
L 194.269029 86.180622 
L 194.269029 86.180622 
L 197.281711 86.180622 
L 197.281711 84.988694 
L 197.281711 84.988694 
L 200.08645 84.988694 
L 200.08645 84.273538 
L 200.08645 84.273538 
L 205.174657 84.273538 
L 205.174657 84.035152 
L 205.174657 84.035152 
L 207.498295 84.035152 
L 207.498295 83.08161 
L 207.498295 83.08161 
L 209.696268 83.08161 
L 209.696268 82.843224 
L 209.696268 82.843224 
L 213.76492 82.843224 
L 213.76492 82.366453 
L 213.76492 82.366453 
L 215.656079 82.366453 
L 215.656079 81.889682 
L 215.656079 81.889682 
L 217.463159 81.889682 
L 217.463159 80.93614 
L 217.463159 80.93614 
L 219.193318 80.93614 
L 219.193318 79.029055 
L 219.193318 79.029055 
L 220.852838 79.029055 
L 220.852838 78.552284 
L 220.852838 78.552284 
L 223.981504 78.552284 
L 223.981504 77.837128 
L 223.981504 77.837128 
L 225.459943 77.837128 
L 225.459943 74.022959 
L 225.459943 74.022959 
L 228.264682 74.022959 
L 228.264682 73.784573 
L 228.264682 73.784573 
L 229.597674 73.784573 
L 229.597674 72.831031 
L 229.597674 72.831031 
L 230.888341 72.831031 
L 230.888341 72.592645 
L 230.888341 72.592645 
L 233.352889 72.592645 
L 233.352889 72.35426 
L 233.352889 72.35426 
L 234.531307 72.35426 
L 234.531307 72.115874 
L 234.531307 72.115874 
L 235.676527 72.115874 
L 235.676527 71.877489 
L 235.676527 71.877489 
L 237.8745 71.877489 
L 237.8745 70.685561 
L 237.8745 70.685561 
L 238.930471 70.685561 
L 238.930471 69.970404 
L 238.930471 69.970404 
L 239.959705 69.970404 
L 239.959705 69.493633 
L 239.959705 69.493633 
L 243.834311 69.493633 
L 243.834311 69.016862 
L 243.834311 69.016862 
L 245.641391 69.016862 
L 245.641391 68.540091 
L 245.641391 68.540091 
L 246.515674 68.540091 
L 246.515674 68.301706 
L 246.515674 68.301706 
L 247.37155 68.301706 
L 247.37155 67.824934 
L 247.37155 67.824934 
L 249.836098 67.824934 
L 249.836098 67.586549 
L 249.836098 67.586549 
L 251.399852 67.586549 
L 251.399852 67.348163 
L 251.399852 67.348163 
L 254.357709 67.348163 
L 254.357709 66.394621 
L 254.357709 66.394621 
L 255.759661 66.394621 
L 255.759661 65.91785 
L 255.759661 65.91785 
L 257.114873 65.91785 
L 257.114873 64.487537 
L 257.114873 64.487537 
L 257.775906 64.487537 
L 257.775906 64.249151 
L 257.775906 64.249151 
L 260.928849 64.249151 
L 260.928849 64.010766 
L 260.928849 64.010766 
L 262.1246 64.010766 
L 262.1246 63.77238 
L 262.1246 63.77238 
L 262.70954 63.77238 
L 262.70954 63.533994 
L 262.70954 63.533994 
L 264.415493 63.533994 
L 264.415493 63.295609 
L 264.415493 63.295609 
L 264.968598 63.295609 
L 264.968598 63.057223 
L 264.968598 63.057223 
L 267.108703 63.057223 
L 267.108703 62.580452 
L 267.108703 62.580452 
L 268.642945 62.580452 
L 268.642945 62.103681 
L 268.642945 62.103681 
L 269.141756 62.103681 
L 269.141756 61.865296 
L 269.141756 61.865296 
L 269.634521 61.865296 
L 269.634521 61.62691 
L 269.634521 61.62691 
L 270.602485 61.62691 
L 270.602485 61.388524 
L 270.602485 61.388524 
L 272.012543 61.388524 
L 272.012543 61.150139 
L 272.012543 61.150139 
L 272.4719 61.150139 
L 272.4719 60.911753 
L 272.4719 60.911753 
L 272.926123 60.911753 
L 272.926123 60.673368 
L 272.926123 60.673368 
L 273.819623 60.673368 
L 273.819623 60.434982 
L 273.819623 60.434982 
L 275.124096 60.434982 
L 275.124096 60.196597 
L 275.124096 60.196597 
L 275.549782 60.196597 
L 275.549782 59.958211 
L 275.549782 59.958211 
L 275.971056 59.958211 
L 275.971056 59.48144 
L 275.971056 59.48144 
L 276.80073 59.48144 
L 276.80073 59.243054 
L 276.80073 59.243054 
L 282.177766 59.243054 
L 282.177766 59.004669 
L 282.177766 59.004669 
L 284.621146 59.004669 
L 284.621146 58.289512 
L 284.621146 58.289512 
L 286.604593 58.289512 
L 286.604593 57.812741 
L 286.604593 57.812741 
L 287.244805 57.812741 
L 287.244805 57.33597 
L 287.244805 57.33597 
L 288.495752 57.33597 
L 288.495752 57.097585 
L 288.495752 57.097585 
L 289.409332 57.097585 
L 289.409332 56.859199 
L 289.409332 56.859199 
L 290.302832 56.859199 
L 290.302832 56.620813 
L 290.302832 56.620813 
L 290.887772 56.620813 
L 290.887772 56.144042 
L 290.887772 56.144042 
L 291.464414 56.144042 
L 291.464414 55.905657 
L 291.464414 55.905657 
L 292.032991 55.905657 
L 292.032991 55.667271 
L 292.032991 55.667271 
L 292.314325 55.667271 
L 292.314325 55.428886 
L 292.314325 55.428886 
L 293.962629 55.428886 
L 293.962629 55.1905 
L 293.962629 55.1905 
L 294.230964 55.1905 
L 294.230964 54.952115 
L 294.230964 54.952115 
L 294.762378 54.952115 
L 294.762378 54.475343 
L 294.762378 54.475343 
L 299.726169 54.475343 
L 299.726169 54.236958 
L 299.726169 54.236958 
L 300.190775 54.236958 
L 300.190775 53.998572 
L 300.190775 53.998572 
L 300.421102 53.998572 
L 300.421102 53.760187 
L 300.421102 53.760187 
L 303.515728 53.760187 
L 303.515728 53.521801 
L 303.515728 53.521801 
L 304.566241 53.521801 
L 304.566241 53.283416 
L 304.566241 53.283416 
L 304.773125 53.283416 
L 304.773125 53.04503 
L 304.773125 53.04503 
L 305.183761 53.04503 
L 305.183761 52.806645 
L 305.183761 52.806645 
L 305.792041 52.806645 
L 305.792041 52.568259 
L 305.792041 52.568259 
L 306.981958 52.568259 
L 306.981958 52.329873 
L 306.981958 52.329873 
L 310.53548 52.329873 
L 310.53548 52.091488 
L 310.53548 52.091488 
L 311.06922 52.091488 
L 311.06922 51.853102 
L 311.06922 51.853102 
L 312.799378 51.853102 
L 312.799378 51.614717 
L 312.799378 51.614717 
L 313.136746 51.614717 
L 313.136746 51.376331 
L 313.136746 51.376331 
L 314.782825 51.376331 
L 314.782825 51.137946 
L 314.782825 51.137946 
L 323.072385 51.137946 
L 323.072385 50.89956 
L 323.072385 50.89956 
L 324.621243 50.89956 
L 324.621243 50.661175 
L 324.621243 50.661175 
L 324.747689 50.661175 
L 324.747689 50.422789 
L 324.747689 50.422789 
L 326.71911 50.422789 
L 326.71911 50.184403 
L 326.71911 50.184403 
L 331.800242 50.184403 
L 331.800242 49.946018 
L 331.800242 49.946018 
L 336.975766 49.946018 
L 336.975766 49.707632 
L 336.975766 49.707632 
L 337.99098 49.707632 
L 337.99098 49.469247 
L 337.99098 49.469247 
L 341.398885 49.469247 
L 341.398885 49.230861 
L 341.398885 49.230861 
L 341.732789 49.230861 
L 341.732789 48.992476 
L 341.732789 48.992476 
L 342.718354 48.992476 
L 342.718354 48.75409 
L 342.718354 48.75409 
L 345.614952 48.75409 
L 345.614952 48.515705 
L 345.614952 48.515705 
L 347.605594 48.515705 
L 347.605594 48.277319 
L 347.605594 48.277319 
L 349.158486 48.277319 
L 349.158486 48.038933 
L 349.158486 48.038933 
L 349.708784 48.038933 
L 349.708784 47.562162 
L 349.708784 47.562162 
L 349.981164 47.562162 
L 349.981164 47.323777 
L 349.981164 47.323777 
L 351.118842 47.323777 
L 351.118842 47.085391 
L 351.118842 47.085391 
L 358.902945 47.085391 
L 358.957403 46.370235 
L 358.957403 46.370235 
L 359.765632 46.370235 
L 359.765632 46.131849 
L 359.765632 46.131849 
L 365.153998 46.131849 
L 365.153998 45.893463 
L 365.153998 45.893463 
L 366.032258 45.893463 
L 366.032258 45.655078 
L 366.032258 45.655078 
L 376.954021 45.655078 
L 376.988961 45.178307 
L 376.988961 45.178307 
L 377.578391 45.178307 
L 377.578391 44.939921 
L 377.578391 44.939921 
L 384.08526 44.939921 
L 384.08526 44.701536 
L 384.08526 44.701536 
L 385.948412 44.701536 
L 385.948412 44.46315 
L 385.948412 44.46315 
L 386.283233 44.46315 
L 386.283233 44.224765 
L 386.283233 44.224765 
L 389.385132 44.224765 
L 389.385132 43.986379 
L 389.385132 43.986379 
L 389.896814 43.986379 
L 389.896814 43.747994 
L 389.896814 43.747994 
L 403.126079 43.747994 
L 403.126079 43.509608 
L 403.126079 43.509608 
L 403.926067 43.509608 
L 403.926067 43.271222 
L 403.926067 43.271222 
L 409.534105 43.271222 
L 409.534105 43.032837 
L 409.534105 43.032837 
L 411.133354 43.032837 
L 411.133354 42.794451 
L 411.133354 42.794451 
L 412.657543 42.794451 
L 412.657543 42.556066 
L 412.657543 42.556066 
L 412.788049 42.556066 
L 412.788049 42.31768 
L 412.788049 42.31768 
L 418.201967 42.31768 
L 418.201967 42.079295 
L 418.201967 42.079295 
L 430.403874 42.079295 
L 430.403874 41.840909 
L 430.403874 41.840909 
L 432.23013 41.840909 
L 432.23013 41.840909 
" clip-path="url(#pc0d944c351)" style="fill: none; stroke: #a60628; stroke-width: 2; stroke-linecap: square"/>
   </g>
   <g id="line2d_55">
    <path d="M -1 239.224147 
L 89.997181 239.224147 
L 89.997181 175.81359 
L 89.997181 175.81359 
L 118.175413 175.81359 
L 118.175413 161.033686 
L 118.175413 161.033686 
L 134.658622 161.033686 
L 134.658622 144.823468 
L 134.658622 144.823468 
L 146.353645 144.823468 
L 146.353645 132.665805 
L 146.353645 132.665805 
L 155.425009 132.665805 
L 155.425009 128.613251 
L 155.425009 128.613251 
L 162.836854 128.613251 
L 162.836854 119.077828 
L 162.836854 119.077828 
L 169.103479 119.077828 
L 169.103479 110.495948 
L 169.103479 110.495948 
L 174.531877 110.495948 
L 174.531877 106.68178 
L 174.531877 106.68178 
L 179.320063 106.68178 
L 179.320063 106.205008 
L 179.320063 106.205008 
L 183.603241 106.205008 
L 183.603241 104.297924 
L 183.603241 104.297924 
L 187.477847 104.297924 
L 187.477847 100.006984 
L 187.477847 100.006984 
L 191.015086 100.006984 
L 191.015086 98.815056 
L 191.015086 98.815056 
L 197.281711 98.815056 
L 197.281711 97.861514 
L 197.281711 97.861514 
L 200.08645 97.861514 
L 200.08645 97.384743 
L 200.08645 97.384743 
L 207.498295 97.384743 
L 207.498295 93.570574 
L 207.498295 93.570574 
L 209.696268 93.570574 
L 209.696268 92.617032 
L 209.696268 92.617032 
L 211.781473 92.617032 
L 211.781473 92.140261 
L 211.781473 92.140261 
L 213.76492 92.140261 
L 213.76492 91.66349 
L 213.76492 91.66349 
L 217.463159 91.66349 
L 217.463159 90.948333 
L 217.463159 90.948333 
L 219.193318 90.948333 
L 219.193318 90.471562 
L 219.193318 90.471562 
L 222.447262 90.471562 
L 222.447262 90.233176 
L 222.447262 90.233176 
L 223.981504 90.233176 
L 223.981504 89.51802 
L 223.981504 89.51802 
L 225.459943 89.51802 
L 225.459943 88.802863 
L 225.459943 88.802863 
L 228.264682 88.802863 
L 228.264682 88.087706 
L 228.264682 88.087706 
L 230.888341 88.087706 
L 230.888341 87.37255 
L 230.888341 87.37255 
L 232.139288 87.37255 
L 232.139288 85.942236 
L 232.139288 85.942236 
L 233.352889 85.942236 
L 233.352889 85.703851 
L 233.352889 85.703851 
L 234.531307 85.703851 
L 234.531307 85.465465 
L 234.531307 85.465465 
L 235.676527 85.465465 
L 235.676527 84.750309 
L 235.676527 84.750309 
L 237.8745 84.750309 
L 237.8745 83.558381 
L 237.8745 83.558381 
L 238.930471 83.558381 
L 238.930471 83.08161 
L 238.930471 83.08161 
L 239.959705 83.08161 
L 239.959705 82.843224 
L 239.959705 82.843224 
L 240.963524 82.843224 
L 240.963524 82.128068 
L 240.963524 82.128068 
L 242.899728 82.128068 
L 242.899728 81.412911 
L 242.899728 81.412911 
L 243.834311 81.412911 
L 243.834311 80.697754 
L 243.834311 80.697754 
L 244.747891 80.697754 
L 244.747891 80.220983 
L 244.747891 80.220983 
L 245.641391 80.220983 
L 245.641391 78.79067 
L 245.641391 78.79067 
L 246.515674 78.79067 
L 246.515674 78.552284 
L 246.515674 78.552284 
L 247.37155 78.552284 
L 247.37155 78.075513 
L 247.37155 78.075513 
L 248.209777 78.075513 
L 248.209777 77.598742 
L 248.209777 77.598742 
L 249.03107 77.598742 
L 249.03107 76.883585 
L 249.03107 76.883585 
L 249.836098 76.883585 
L 249.836098 76.6452 
L 249.836098 76.6452 
L 250.625494 76.6452 
L 250.625494 76.406814 
L 250.625494 76.406814 
L 251.399852 76.406814 
L 251.399852 76.168429 
L 251.399852 76.168429 
L 252.905676 76.168429 
L 252.905676 74.976501 
L 252.905676 74.976501 
L 253.638175 74.976501 
L 253.638175 74.738115 
L 253.638175 74.738115 
L 254.357709 74.738115 
L 254.357709 74.49973 
L 254.357709 74.49973 
L 255.759661 74.49973 
L 255.759661 74.261344 
L 255.759661 74.261344 
L 256.442914 74.261344 
L 256.442914 73.546188 
L 256.442914 73.546188 
L 257.114873 73.546188 
L 257.114873 73.307802 
L 257.114873 73.307802 
L 258.426361 73.307802 
L 258.426361 73.069417 
L 258.426361 73.069417 
L 259.696858 73.069417 
L 259.696858 72.592645 
L 259.696858 72.592645 
L 260.31752 72.592645 
L 260.31752 71.639103 
L 260.31752 71.639103 
L 261.531121 71.639103 
L 261.531121 71.400718 
L 261.531121 71.400718 
L 263.286182 71.400718 
L 263.286182 71.162332 
L 263.286182 71.162332 
L 263.854759 71.162332 
L 263.854759 70.923947 
L 263.854759 70.923947 
L 265.514279 70.923947 
L 265.514279 70.685561 
L 265.514279 70.685561 
L 266.052732 70.685561 
L 266.052732 70.447175 
L 266.052732 70.447175 
L 266.584146 70.447175 
L 266.584146 69.493633 
L 266.584146 69.493633 
L 269.141756 69.493633 
L 269.141756 69.255248 
L 269.141756 69.255248 
L 269.634521 69.255248 
L 269.634521 68.301706 
L 269.634521 68.301706 
L 270.602485 68.301706 
L 270.602485 68.06332 
L 270.602485 68.06332 
L 271.07796 68.06332 
L 271.07796 67.824934 
L 271.07796 67.824934 
L 273.375328 67.824934 
L 273.375328 67.586549 
L 273.375328 67.586549 
L 273.819623 67.586549 
L 273.819623 67.348163 
L 273.819623 67.348163 
L 275.124096 67.348163 
L 275.124096 66.394621 
L 275.124096 66.394621 
L 276.80073 66.394621 
L 276.80073 66.156236 
L 276.80073 66.156236 
L 277.209302 66.156236 
L 277.209302 65.91785 
L 277.209302 65.91785 
L 278.410944 65.91785 
L 278.410944 65.679464 
L 278.410944 65.679464 
L 279.959801 65.679464 
L 279.959801 65.441079 
L 279.959801 65.441079 
L 281.083908 65.441079 
L 281.083908 65.202693 
L 281.083908 65.202693 
L 281.451807 65.202693 
L 281.451807 64.964308 
L 281.451807 64.964308 
L 281.816407 64.964308 
L 281.816407 64.725922 
L 281.816407 64.725922 
L 282.890987 64.725922 
L 282.890987 64.487537 
L 282.890987 64.487537 
L 283.937893 64.487537 
L 283.937893 64.249151 
L 283.937893 64.249151 
L 284.621146 64.249151 
L 284.621146 64.010766 
L 284.621146 64.010766 
L 285.293105 64.010766 
L 285.293105 63.533994 
L 285.293105 63.533994 
L 285.624965 63.533994 
L 285.624965 63.295609 
L 285.624965 63.295609 
L 286.604593 63.295609 
L 286.604593 63.057223 
L 286.604593 63.057223 
L 286.925959 63.057223 
L 286.925959 62.818838 
L 286.925959 62.818838 
L 287.561169 62.818838 
L 287.561169 62.342067 
L 287.561169 62.342067 
L 288.802566 62.342067 
L 288.802566 62.103681 
L 288.802566 62.103681 
L 290.007175 62.103681 
L 290.007175 61.62691 
L 290.007175 61.62691 
L 290.887772 61.62691 
L 290.887772 61.388524 
L 290.887772 61.388524 
L 293.692511 61.388524 
L 293.692511 60.673368 
L 293.692511 60.673368 
L 295.025502 60.673368 
L 295.025502 60.434982 
L 295.025502 60.434982 
L 295.804809 60.434982 
L 295.804809 60.196597 
L 295.804809 60.196597 
L 299.01915 60.196597 
L 299.01915 59.958211 
L 299.01915 59.958211 
L 301.997855 59.958211 
L 301.997855 59.719826 
L 301.997855 59.719826 
L 304.773125 59.719826 
L 304.773125 59.48144 
L 304.773125 59.48144 
L 306.589176 59.48144 
L 306.589176 59.243054 
L 306.589176 59.243054 
L 306.786041 59.243054 
L 306.786041 59.004669 
L 306.786041 59.004669 
L 307.176934 59.004669 
L 307.176934 58.527898 
L 307.176934 58.527898 
L 308.138033 58.527898 
L 308.138033 58.289512 
L 308.138033 58.289512 
L 311.245587 58.289512 
L 311.245587 58.051127 
L 311.245587 58.051127 
L 311.421192 58.051127 
L 311.421192 57.812741 
L 311.421192 57.812741 
L 313.136746 57.812741 
L 313.136746 57.574356 
L 313.136746 57.574356 
L 314.13237 57.574356 
L 314.13237 57.097585 
L 314.13237 57.097585 
L 315.581527 57.097585 
L 315.581527 56.859199 
L 315.581527 56.859199 
L 315.896665 56.859199 
L 315.896665 56.620813 
L 315.896665 56.620813 
L 316.209378 56.620813 
L 316.209378 56.382428 
L 316.209378 56.382428 
L 316.673984 56.382428 
L 316.673984 55.667271 
L 316.673984 55.667271 
L 317.587564 55.667271 
L 317.587564 55.428886 
L 317.587564 55.428886 
L 321.462171 55.428886 
L 321.462171 55.1905 
L 321.462171 55.1905 
L 324.111485 55.1905 
L 324.111485 54.952115 
L 324.111485 54.952115 
L 324.747689 54.952115 
L 324.747689 54.713729 
L 324.747689 54.713729 
L 324.873744 54.713729 
L 324.873744 54.475343 
L 324.873744 54.475343 
L 325.745349 54.475343 
L 325.745349 54.236958 
L 325.745349 54.236958 
L 326.113248 54.236958 
L 326.113248 53.998572 
L 326.113248 53.998572 
L 326.839207 53.998572 
L 326.839207 53.760187 
L 326.839207 53.760187 
L 327.670092 53.760187 
L 327.670092 53.521801 
L 327.670092 53.521801 
L 328.021052 53.521801 
L 328.021052 53.283416 
L 328.021052 53.283416 
L 328.253353 53.283416 
L 328.253353 53.04503 
L 328.253353 53.04503 
L 328.599334 53.04503 
L 328.599334 52.806645 
L 328.599334 52.806645 
L 329.169506 52.806645 
L 329.169506 52.568259 
L 329.169506 52.568259 
L 329.395355 52.568259 
L 329.395355 52.329873 
L 329.395355 52.329873 
L 330.286406 52.329873 
L 330.286406 52.091488 
L 330.286406 52.091488 
L 330.724713 52.091488 
L 330.724713 51.614717 
L 330.724713 51.614717 
L 333.768522 51.614717 
L 333.768522 51.376331 
L 333.768522 51.376331 
L 334.569585 51.376331 
L 334.668617 50.89956 
L 334.668617 50.89956 
L 335.062349 50.89956 
L 335.062349 50.661175 
L 335.062349 50.661175 
L 337.808271 50.661175 
L 337.808271 50.422789 
L 337.808271 50.422789 
L 338.62407 50.422789 
L 338.62407 49.946018 
L 338.62407 49.946018 
L 338.803156 49.946018 
L 338.803156 49.707632 
L 338.803156 49.707632 
L 341.062215 49.707632 
L 341.062215 49.469247 
L 341.062215 49.469247 
L 343.521791 49.469247 
L 343.521791 49.230861 
L 343.521791 49.230861 
L 345.916083 49.230861 
L 345.916083 48.992476 
L 345.916083 48.992476 
L 346.215001 48.992476 
L 346.215001 48.75409 
L 346.215001 48.75409 
L 346.363639 48.75409 
L 346.363639 48.515705 
L 346.363639 48.515705 
L 346.659296 48.515705 
L 346.659296 48.277319 
L 346.659296 48.277319 
L 347.749243 48.277319 
L 347.820878 47.800548 
L 347.820878 47.800548 
L 353.676452 47.800548 
L 353.676452 47.562162 
L 353.676452 47.562162 
L 354.71653 47.562162 
L 354.71653 47.323777 
L 354.71653 47.323777 
L 356.141 47.323777 
L 356.199284 46.847006 
L 356.199284 46.847006 
L 358.132778 46.847006 
L 358.132778 46.60862 
L 358.132778 46.60862 
L 359.658792 46.60862 
L 359.658792 46.370235 
L 359.658792 46.370235 
L 360.922705 46.370235 
L 360.922705 46.131849 
L 360.922705 46.131849 
L 362.94564 46.131849 
L 362.94564 45.893463 
L 362.94564 45.893463 
L 365.153998 45.893463 
L 365.153998 45.655078 
L 365.153998 45.655078 
L 368.601577 45.655078 
L 368.601577 45.416692 
L 368.601577 45.416692 
L 370.855995 45.416692 
L 370.855995 45.178307 
L 370.855995 45.178307 
L 374.726909 45.178307 
L 374.726909 44.939921 
L 374.726909 44.939921 
L 378.057467 44.939921 
L 378.125448 44.46315 
L 378.125448 44.46315 
L 383.015393 44.46315 
L 383.015393 44.224765 
L 383.015393 44.224765 
L 386.917365 44.224765 
L 387.026647 43.747994 
L 387.026647 43.747994 
L 389.152757 43.747994 
L 389.152757 43.509608 
L 389.152757 43.509608 
L 390.801918 43.509608 
L 390.801918 43.271222 
L 390.801918 43.271222 
L 396.283118 43.271222 
L 396.283118 43.032837 
L 396.283118 43.032837 
L 396.543018 43.032837 
L 396.650821 42.556066 
L 396.650821 42.556066 
L 406.893714 42.556066 
L 406.893714 42.31768 
L 406.893714 42.31768 
L 423.748993 42.31768 
L 423.748993 42.079295 
L 423.748993 42.079295 
L 427.202304 42.079295 
L 427.202304 41.840909 
L 427.202304 41.840909 
L 432.23013 41.840909 
L 432.23013 41.840909 
" clip-path="url(#pc0d944c351)" style="fill: none; stroke: #7a68a6; stroke-width: 2; stroke-linecap: square"/>
   </g>
   <g id="line2d_56">
    <path d="M -1 316.944974 
L 274.017534 316.928108 
L 302.195766 311.197124 
L 318.678975 305.466141 
L 330.373998 299.735158 
L 339.445362 294.004174 
L 346.857207 288.273191 
L 353.123832 282.542208 
L 358.55223 276.811224 
L 363.340416 271.080241 
L 367.623594 265.349258 
L 371.498201 259.618275 
L 375.035439 253.887291 
L 378.289383 248.156308 
L 381.302064 242.425325 
L 384.106803 236.694341 
L 386.730462 230.963358 
L 389.19501 225.232375 
L 391.518648 219.501391 
L 393.716621 213.770408 
L 395.801826 208.039425 
L 397.785273 202.308442 
L 399.676433 196.577458 
L 401.483512 190.846475 
L 403.213671 185.115492 
L 404.873191 179.384508 
L 406.467615 173.653525 
L 408.001857 167.922542 
L 409.480296 162.191558 
L 410.906849 156.460575 
L 412.285035 150.729592 
L 413.618027 144.998609 
L 414.908694 139.267625 
L 416.159642 133.536642 
L 417.373242 127.805659 
L 418.551661 122.074675 
L 419.69688 116.343692 
L 420.810719 110.612709 
L 421.894853 104.881725 
L 422.950824 99.150742 
L 423.980058 93.419759 
L 424.983877 87.688776 
L 425.963505 81.957792 
L 426.920081 76.226809 
L 427.854665 70.495826 
L 428.768244 64.764842 
L 429.661744 59.033859 
L 430.536027 53.302876 
L 431.391903 47.571892 
L 432.23013 41.840909 
" clip-path="url(#pc0d944c351)" style="fill: none; stroke-dasharray: 7.4,3.2; stroke-dashoffset: 0; stroke: #808080; stroke-width: 2"/>
   </g>
   <g id="patch_3">
    <path d="M 72.885533 336.7 
L 72.885533 27.8 
" style="fill: none; stroke: #bcbcbc; stroke-width: 0.8; stroke-linejoin: miter; stroke-linecap: square"/>
   </g>
   <g id="patch_4">
    <path d="M 449.341778 336.7 
L 449.341778 27.8 
" style="fill: none; stroke: #bcbcbc; stroke-width: 0.8; stroke-linejoin: miter; stroke-linecap: square"/>
   </g>
   <g id="patch_5">
    <path d="M 72.885533 336.7 
L 449.341778 336.7 
" style="fill: none; stroke: #bcbcbc; stroke-width: 0.8; stroke-linejoin: miter; stroke-linecap: square"/>
   </g>
   <g id="patch_6">
    <path d="M 72.885533 27.8 
L 449.341778 27.8 
" style="fill: none; stroke: #bcbcbc; stroke-width: 0.8; stroke-linejoin: miter; stroke-linecap: square"/>
   </g>
   <g id="text_13">
    <!-- Receiver operating characteristic (ROC) -->
    <g transform="translate(118.036155 21.8)scale(0.144 -0.144)">
     <defs>
      <path id="DejaVuSans-52" d="M 2841 2188 
Q 3044 2119 3236 1894 
Q 3428 1669 3622 1275 
L 4263 0 
L 3584 0 
L 2988 1197 
Q 2756 1666 2539 1819 
Q 2322 1972 1947 1972 
L 1259 1972 
L 1259 0 
L 628 0 
L 628 4666 
L 2053 4666 
Q 2853 4666 3247 4331 
Q 3641 3997 3641 3322 
Q 3641 2881 3436 2590 
Q 3231 2300 2841 2188 
z
M 1259 4147 
L 1259 2491 
L 2053 2491 
Q 2509 2491 2742 2702 
Q 2975 2913 2975 3322 
Q 2975 3731 2742 3939 
Q 2509 4147 2053 4147 
L 1259 4147 
z
" transform="scale(0.015625)"/>
      <path id="DejaVuSans-63" d="M 3122 3366 
L 3122 2828 
Q 2878 2963 2633 3030 
Q 2388 3097 2138 3097 
Q 1578 3097 1268 2742 
Q 959 2388 959 1747 
Q 959 1106 1268 751 
Q 1578 397 2138 397 
Q 2388 397 2633 464 
Q 2878 531 3122 666 
L 3122 134 
Q 2881 22 2623 -34 
Q 2366 -91 2075 -91 
Q 1284 -91 818 406 
Q 353 903 353 1747 
Q 353 2603 823 3093 
Q 1294 3584 2113 3584 
Q 2378 3584 2631 3529 
Q 2884 3475 3122 3366 
z
" transform="scale(0.015625)"/>
      <path id="DejaVuSans-6e" d="M 3513 2113 
L 3513 0 
L 2938 0 
L 2938 2094 
Q 2938 2591 2744 2837 
Q 2550 3084 2163 3084 
Q 1697 3084 1428 2787 
Q 1159 2491 1159 1978 
L 1159 0 
L 581 0 
L 581 3500 
L 1159 3500 
L 1159 2956 
Q 1366 3272 1645 3428 
Q 1925 3584 2291 3584 
Q 2894 3584 3203 3211 
Q 3513 2838 3513 2113 
z
" transform="scale(0.015625)"/>
      <path id="DejaVuSans-67" d="M 2906 1791 
Q 2906 2416 2648 2759 
Q 2391 3103 1925 3103 
Q 1463 3103 1205 2759 
Q 947 2416 947 1791 
Q 947 1169 1205 825 
Q 1463 481 1925 481 
Q 2391 481 2648 825 
Q 2906 1169 2906 1791 
z
M 3481 434 
Q 3481 -459 3084 -895 
Q 2688 -1331 1869 -1331 
Q 1566 -1331 1297 -1286 
Q 1028 -1241 775 -1147 
L 775 -588 
Q 1028 -725 1275 -790 
Q 1522 -856 1778 -856 
Q 2344 -856 2625 -561 
Q 2906 -266 2906 331 
L 2906 616 
Q 2728 306 2450 153 
Q 2172 0 1784 0 
Q 1141 0 747 490 
Q 353 981 353 1791 
Q 353 2603 747 3093 
Q 1141 3584 1784 3584 
Q 2172 3584 2450 3431 
Q 2728 3278 2906 2969 
L 2906 3500 
L 3481 3500 
L 3481 434 
z
" transform="scale(0.015625)"/>
      <path id="DejaVuSans-68" d="M 3513 2113 
L 3513 0 
L 2938 0 
L 2938 2094 
Q 2938 2591 2744 2837 
Q 2550 3084 2163 3084 
Q 1697 3084 1428 2787 
Q 1159 2491 1159 1978 
L 1159 0 
L 581 0 
L 581 4863 
L 1159 4863 
L 1159 2956 
Q 1366 3272 1645 3428 
Q 1925 3584 2291 3584 
Q 2894 3584 3203 3211 
Q 3513 2838 3513 2113 
z
" transform="scale(0.015625)"/>
      <path id="DejaVuSans-28" d="M 1984 4856 
Q 1566 4138 1362 3434 
Q 1159 2731 1159 2009 
Q 1159 1288 1364 580 
Q 1569 -128 1984 -844 
L 1484 -844 
Q 1016 -109 783 600 
Q 550 1309 550 2009 
Q 550 2706 781 3412 
Q 1013 4119 1484 4856 
L 1984 4856 
z
" transform="scale(0.015625)"/>
      <path id="DejaVuSans-4f" d="M 2522 4238 
Q 1834 4238 1429 3725 
Q 1025 3213 1025 2328 
Q 1025 1447 1429 934 
Q 1834 422 2522 422 
Q 3209 422 3611 934 
Q 4013 1447 4013 2328 
Q 4013 3213 3611 3725 
Q 3209 4238 2522 4238 
z
M 2522 4750 
Q 3503 4750 4090 4092 
Q 4678 3434 4678 2328 
Q 4678 1225 4090 567 
Q 3503 -91 2522 -91 
Q 1538 -91 948 565 
Q 359 1222 359 2328 
Q 359 3434 948 4092 
Q 1538 4750 2522 4750 
z
" transform="scale(0.015625)"/>
      <path id="DejaVuSans-43" d="M 4122 4306 
L 4122 3641 
Q 3803 3938 3442 4084 
Q 3081 4231 2675 4231 
Q 1875 4231 1450 3742 
Q 1025 3253 1025 2328 
Q 1025 1406 1450 917 
Q 1875 428 2675 428 
Q 3081 428 3442 575 
Q 3803 722 4122 1019 
L 4122 359 
Q 3791 134 3420 21 
Q 3050 -91 2638 -91 
Q 1578 -91 968 557 
Q 359 1206 359 2328 
Q 359 3453 968 4101 
Q 1578 4750 2638 4750 
Q 3056 4750 3426 4639 
Q 3797 4528 4122 4306 
z
" transform="scale(0.015625)"/>
      <path id="DejaVuSans-29" d="M 513 4856 
L 1013 4856 
Q 1481 4119 1714 3412 
Q 1947 2706 1947 2009 
Q 1947 1309 1714 600 
Q 1481 -109 1013 -844 
L 513 -844 
Q 928 -128 1133 580 
Q 1338 1288 1338 2009 
Q 1338 2731 1133 3434 
Q 928 4138 513 4856 
z
" transform="scale(0.015625)"/>
     </defs>
     <use xlink:href="#DejaVuSans-52"/>
     <use xlink:href="#DejaVuSans-65" x="64.982422"/>
     <use xlink:href="#DejaVuSans-63" x="126.505859"/>
     <use xlink:href="#DejaVuSans-65" x="181.486328"/>
     <use xlink:href="#DejaVuSans-69" x="243.009766"/>
     <use xlink:href="#DejaVuSans-76" x="270.792969"/>
     <use xlink:href="#DejaVuSans-65" x="329.972656"/>
     <use xlink:href="#DejaVuSans-72" x="391.496094"/>
     <use xlink:href="#DejaVuSans-20" x="432.609375"/>
     <use xlink:href="#DejaVuSans-6f" x="464.396484"/>
     <use xlink:href="#DejaVuSans-70" x="525.578125"/>
     <use xlink:href="#DejaVuSans-65" x="589.054688"/>
     <use xlink:href="#DejaVuSans-72" x="650.578125"/>
     <use xlink:href="#DejaVuSans-61" x="691.691406"/>
     <use xlink:href="#DejaVuSans-74" x="752.970703"/>
     <use xlink:href="#DejaVuSans-69" x="792.179688"/>
     <use xlink:href="#DejaVuSans-6e" x="819.962891"/>
     <use xlink:href="#DejaVuSans-67" x="883.341797"/>
     <use xlink:href="#DejaVuSans-20" x="946.818359"/>
     <use xlink:href="#DejaVuSans-63" x="978.605469"/>
     <use xlink:href="#DejaVuSans-68" x="1033.585938"/>
     <use xlink:href="#DejaVuSans-61" x="1096.964844"/>
     <use xlink:href="#DejaVuSans-72" x="1158.244141"/>
     <use xlink:href="#DejaVuSans-61" x="1199.357422"/>
     <use xlink:href="#DejaVuSans-63" x="1260.636719"/>
     <use xlink:href="#DejaVuSans-74" x="1315.617188"/>
     <use xlink:href="#DejaVuSans-65" x="1354.826172"/>
     <use xlink:href="#DejaVuSans-72" x="1416.349609"/>
     <use xlink:href="#DejaVuSans-69" x="1457.462891"/>
     <use xlink:href="#DejaVuSans-73" x="1485.246094"/>
     <use xlink:href="#DejaVuSans-74" x="1537.345703"/>
     <use xlink:href="#DejaVuSans-69" x="1576.554688"/>
     <use xlink:href="#DejaVuSans-63" x="1604.337891"/>
     <use xlink:href="#DejaVuSans-20" x="1659.318359"/>
     <use xlink:href="#DejaVuSans-28" x="1691.105469"/>
     <use xlink:href="#DejaVuSans-52" x="1730.119141"/>
     <use xlink:href="#DejaVuSans-4f" x="1799.601562"/>
     <use xlink:href="#DejaVuSans-43" x="1878.3125"/>
     <use xlink:href="#DejaVuSans-29" x="1948.136719"/>
    </g>
   </g>
   <g id="legend_1">
    <g id="patch_7">
     <path d="M 185.639437 213.10625 
L 336.587874 213.10625 
Q 338.587874 213.10625 338.587874 211.10625 
L 338.587874 153.39375 
Q 338.587874 151.39375 336.587874 151.39375 
L 185.639437 151.39375 
Q 183.639437 151.39375 183.639437 153.39375 
L 183.639437 211.10625 
Q 183.639437 213.10625 185.639437 213.10625 
z
" style="fill: #eeeeee; opacity: 0.8; stroke: #cccccc; stroke-width: 0.5; stroke-linejoin: miter"/>
    </g>
    <g id="line2d_57">
     <path d="M 187.639437 159.492188 
L 187.639437 159.492188 
L 197.639437 159.492188 
L 197.639437 159.492188 
L 207.639437 159.492188 
" style="fill: none; stroke: #348abd; stroke-width: 2; stroke-linecap: square"/>
    </g>
    <g id="text_14">
     <!-- cv2 (AUC: 98.83%) -->
     <g transform="translate(215.639437 162.992188)scale(0.1 -0.1)">
      <defs>
       <path id="DejaVuSans-41" d="M 2188 4044 
L 1331 1722 
L 3047 1722 
L 2188 4044 
z
M 1831 4666 
L 2547 4666 
L 4325 0 
L 3669 0 
L 3244 1197 
L 1141 1197 
L 716 0 
L 50 0 
L 1831 4666 
z
" transform="scale(0.015625)"/>
       <path id="DejaVuSans-55" d="M 556 4666 
L 1191 4666 
L 1191 1831 
Q 1191 1081 1462 751 
Q 1734 422 2344 422 
Q 2950 422 3222 751 
Q 3494 1081 3494 1831 
L 3494 4666 
L 4128 4666 
L 4128 1753 
Q 4128 841 3676 375 
Q 3225 -91 2344 -91 
Q 1459 -91 1007 375 
Q 556 841 556 1753 
L 556 4666 
z
" transform="scale(0.015625)"/>
       <path id="DejaVuSans-3a" d="M 750 794 
L 1409 794 
L 1409 0 
L 750 0 
L 750 794 
z
M 750 3309 
L 1409 3309 
L 1409 2516 
L 750 2516 
L 750 3309 
z
" transform="scale(0.015625)"/>
       <path id="DejaVuSans-39" d="M 703 97 
L 703 672 
Q 941 559 1184 500 
Q 1428 441 1663 441 
Q 2288 441 2617 861 
Q 2947 1281 2994 2138 
Q 2813 1869 2534 1725 
Q 2256 1581 1919 1581 
Q 1219 1581 811 2004 
Q 403 2428 403 3163 
Q 403 3881 828 4315 
Q 1253 4750 1959 4750 
Q 2769 4750 3195 4129 
Q 3622 3509 3622 2328 
Q 3622 1225 3098 567 
Q 2575 -91 1691 -91 
Q 1453 -91 1209 -44 
Q 966 3 703 97 
z
M 1959 2075 
Q 2384 2075 2632 2365 
Q 2881 2656 2881 3163 
Q 2881 3666 2632 3958 
Q 2384 4250 1959 4250 
Q 1534 4250 1286 3958 
Q 1038 3666 1038 3163 
Q 1038 2656 1286 2365 
Q 1534 2075 1959 2075 
z
" transform="scale(0.015625)"/>
       <path id="DejaVuSans-33" d="M 2597 2516 
Q 3050 2419 3304 2112 
Q 3559 1806 3559 1356 
Q 3559 666 3084 287 
Q 2609 -91 1734 -91 
Q 1441 -91 1130 -33 
Q 819 25 488 141 
L 488 750 
Q 750 597 1062 519 
Q 1375 441 1716 441 
Q 2309 441 2620 675 
Q 2931 909 2931 1356 
Q 2931 1769 2642 2001 
Q 2353 2234 1838 2234 
L 1294 2234 
L 1294 2753 
L 1863 2753 
Q 2328 2753 2575 2939 
Q 2822 3125 2822 3475 
Q 2822 3834 2567 4026 
Q 2313 4219 1838 4219 
Q 1578 4219 1281 4162 
Q 984 4106 628 3988 
L 628 4550 
Q 988 4650 1302 4700 
Q 1616 4750 1894 4750 
Q 2613 4750 3031 4423 
Q 3450 4097 3450 3541 
Q 3450 3153 3228 2886 
Q 3006 2619 2597 2516 
z
" transform="scale(0.015625)"/>
      </defs>
      <use xlink:href="#DejaVuSans-63"/>
      <use xlink:href="#DejaVuSans-76" x="54.980469"/>
      <use xlink:href="#DejaVuSans-32" x="114.160156"/>
      <use xlink:href="#DejaVuSans-20" x="177.783203"/>
      <use xlink:href="#DejaVuSans-28" x="209.570312"/>
      <use xlink:href="#DejaVuSans-41" x="248.583984"/>
      <use xlink:href="#DejaVuSans-55" x="316.992188"/>
      <use xlink:href="#DejaVuSans-43" x="390.185547"/>
      <use xlink:href="#DejaVuSans-3a" x="460.009766"/>
      <use xlink:href="#DejaVuSans-20" x="493.701172"/>
      <use xlink:href="#DejaVuSans-39" x="525.488281"/>
      <use xlink:href="#DejaVuSans-38" x="589.111328"/>
      <use xlink:href="#DejaVuSans-2e" x="652.734375"/>
      <use xlink:href="#DejaVuSans-38" x="684.521484"/>
      <use xlink:href="#DejaVuSans-33" x="748.144531"/>
      <use xlink:href="#DejaVuSans-25" x="811.767578"/>
      <use xlink:href="#DejaVuSans-29" x="906.787109"/>
     </g>
    </g>
    <g id="line2d_58">
     <path d="M 187.639437 174.170312 
L 187.639437 174.170312 
L 197.639437 174.170312 
L 197.639437 174.170312 
L 207.639437 174.170312 
" style="fill: none; stroke: #a60628; stroke-width: 2; stroke-linecap: square"/>
    </g>
    <g id="text_15">
     <!-- hogpp (AUC: 98.91%) -->
     <g transform="translate(215.639437 177.670312)scale(0.1 -0.1)">
      <use xlink:href="#DejaVuSans-68"/>
      <use xlink:href="#DejaVuSans-6f" x="63.378906"/>
      <use xlink:href="#DejaVuSans-67" x="124.560547"/>
      <use xlink:href="#DejaVuSans-70" x="188.037109"/>
      <use xlink:href="#DejaVuSans-70" x="251.513672"/>
      <use xlink:href="#DejaVuSans-20" x="314.990234"/>
      <use xlink:href="#DejaVuSans-28" x="346.777344"/>
      <use xlink:href="#DejaVuSans-41" x="385.791016"/>
      <use xlink:href="#DejaVuSans-55" x="454.199219"/>
      <use xlink:href="#DejaVuSans-43" x="527.392578"/>
      <use xlink:href="#DejaVuSans-3a" x="597.216797"/>
      <use xlink:href="#DejaVuSans-20" x="630.908203"/>
      <use xlink:href="#DejaVuSans-39" x="662.695312"/>
      <use xlink:href="#DejaVuSans-38" x="726.318359"/>
      <use xlink:href="#DejaVuSans-2e" x="789.941406"/>
      <use xlink:href="#DejaVuSans-39" x="821.728516"/>
      <use xlink:href="#DejaVuSans-31" x="885.351562"/>
      <use xlink:href="#DejaVuSans-25" x="948.974609"/>
      <use xlink:href="#DejaVuSans-29" x="1043.994141"/>
     </g>
    </g>
    <g id="line2d_59">
     <path d="M 187.639437 188.848437 
L 187.639437 188.848437 
L 197.639437 188.848437 
L 197.639437 188.848437 
L 207.639437 188.848437 
" style="fill: none; stroke: #7a68a6; stroke-width: 2; stroke-linecap: square"/>
    </g>
    <g id="text_16">
     <!-- skimage (AUC: 98.79%) -->
     <g transform="translate(215.639437 192.348437)scale(0.1 -0.1)">
      <defs>
       <path id="DejaVuSans-6b" d="M 581 4863 
L 1159 4863 
L 1159 1991 
L 2875 3500 
L 3609 3500 
L 1753 1863 
L 3688 0 
L 2938 0 
L 1159 1709 
L 1159 0 
L 581 0 
L 581 4863 
z
" transform="scale(0.015625)"/>
       <path id="DejaVuSans-6d" d="M 3328 2828 
Q 3544 3216 3844 3400 
Q 4144 3584 4550 3584 
Q 5097 3584 5394 3201 
Q 5691 2819 5691 2113 
L 5691 0 
L 5113 0 
L 5113 2094 
Q 5113 2597 4934 2840 
Q 4756 3084 4391 3084 
Q 3944 3084 3684 2787 
Q 3425 2491 3425 1978 
L 3425 0 
L 2847 0 
L 2847 2094 
Q 2847 2600 2669 2842 
Q 2491 3084 2119 3084 
Q 1678 3084 1418 2786 
Q 1159 2488 1159 1978 
L 1159 0 
L 581 0 
L 581 3500 
L 1159 3500 
L 1159 2956 
Q 1356 3278 1631 3431 
Q 1906 3584 2284 3584 
Q 2666 3584 2933 3390 
Q 3200 3197 3328 2828 
z
" transform="scale(0.015625)"/>
       <path id="DejaVuSans-37" d="M 525 4666 
L 3525 4666 
L 3525 4397 
L 1831 0 
L 1172 0 
L 2766 4134 
L 525 4134 
L 525 4666 
z
" transform="scale(0.015625)"/>
      </defs>
      <use xlink:href="#DejaVuSans-73"/>
      <use xlink:href="#DejaVuSans-6b" x="52.099609"/>
      <use xlink:href="#DejaVuSans-69" x="110.009766"/>
      <use xlink:href="#DejaVuSans-6d" x="137.792969"/>
      <use xlink:href="#DejaVuSans-61" x="235.205078"/>
      <use xlink:href="#DejaVuSans-67" x="296.484375"/>
      <use xlink:href="#DejaVuSans-65" x="359.960938"/>
      <use xlink:href="#DejaVuSans-20" x="421.484375"/>
      <use xlink:href="#DejaVuSans-28" x="453.271484"/>
      <use xlink:href="#DejaVuSans-41" x="492.285156"/>
      <use xlink:href="#DejaVuSans-55" x="560.693359"/>
      <use xlink:href="#DejaVuSans-43" x="633.886719"/>
      <use xlink:href="#DejaVuSans-3a" x="703.710938"/>
      <use xlink:href="#DejaVuSans-20" x="737.402344"/>
      <use xlink:href="#DejaVuSans-39" x="769.189453"/>
      <use xlink:href="#DejaVuSans-38" x="832.8125"/>
      <use xlink:href="#DejaVuSans-2e" x="896.435547"/>
      <use xlink:href="#DejaVuSans-37" x="928.222656"/>
      <use xlink:href="#DejaVuSans-39" x="991.845703"/>
      <use xlink:href="#DejaVuSans-25" x="1055.46875"/>
      <use xlink:href="#DejaVuSans-29" x="1150.488281"/>
     </g>
    </g>
    <g id="line2d_60">
     <path d="M 187.639437 203.526563 
L 197.639437 203.526563 
L 207.639437 203.526563 
" style="fill: none; stroke-dasharray: 7.4,3.2; stroke-dashoffset: 0; stroke: #808080; stroke-width: 2"/>
    </g>
    <g id="text_17">
     <!-- baseline -->
     <g transform="translate(215.639437 207.026563)scale(0.1 -0.1)">
      <defs>
       <path id="DejaVuSans-62" d="M 3116 1747 
Q 3116 2381 2855 2742 
Q 2594 3103 2138 3103 
Q 1681 3103 1420 2742 
Q 1159 2381 1159 1747 
Q 1159 1113 1420 752 
Q 1681 391 2138 391 
Q 2594 391 2855 752 
Q 3116 1113 3116 1747 
z
M 1159 2969 
Q 1341 3281 1617 3432 
Q 1894 3584 2278 3584 
Q 2916 3584 3314 3078 
Q 3713 2572 3713 1747 
Q 3713 922 3314 415 
Q 2916 -91 2278 -91 
Q 1894 -91 1617 61 
Q 1341 213 1159 525 
L 1159 0 
L 581 0 
L 581 4863 
L 1159 4863 
L 1159 2969 
z
" transform="scale(0.015625)"/>
      </defs>
      <use xlink:href="#DejaVuSans-62"/>
      <use xlink:href="#DejaVuSans-61" x="63.476562"/>
      <use xlink:href="#DejaVuSans-73" x="124.755859"/>
      <use xlink:href="#DejaVuSans-65" x="176.855469"/>
      <use xlink:href="#DejaVuSans-6c" x="238.378906"/>
      <use xlink:href="#DejaVuSans-69" x="266.162109"/>
      <use xlink:href="#DejaVuSans-6e" x="293.945312"/>
      <use xlink:href="#DejaVuSans-65" x="357.324219"/>
     </g>
    </g>
   </g>
  </g>
 </g>
 <defs>
  <clipPath id="pc0d944c351">
   <rect x="72.885533" y="27.8" width="376.456245" height="308.9"/>
  </clipPath>
 </defs>
</svg>
